<svg width="512" height="406" viewBox="0 0 512 406" fill="none" xmlns="http://www.w3.org/2000/svg">
<path d="M52.7886 353.983C52.7886 358.127 51.7977 361.55 49.8159 364.253C47.8341 366.895 45.0715 368.847 41.5283 370.108C37.985 371.369 33.8712 372 29.1869 372H6.84631V308.942H27.9257C32.0695 308.942 35.7329 309.542 38.9159 310.744C42.0988 311.885 44.5911 313.626 46.3927 315.968C48.2545 318.311 49.1853 321.283 49.1853 324.887C49.1853 328.009 48.3445 330.682 46.663 332.904C44.9814 335.066 42.6993 336.748 39.8167 337.949C43.5401 339.09 46.633 340.981 49.0952 343.624C51.5575 346.206 52.7886 349.659 52.7886 353.983ZM26.7547 319.211H19.8183V334.165H26.7547C29.5773 334.165 31.7993 333.505 33.4208 332.183C35.0423 330.802 35.853 328.94 35.853 326.598C35.853 324.256 35.0423 322.454 33.4208 321.193C31.7993 319.872 29.5773 319.211 26.7547 319.211ZM19.8183 361.731H28.1059C31.3489 361.731 34.0514 360.98 36.2134 359.478C38.3754 357.977 39.4564 355.605 39.4564 352.362C39.4564 349.299 38.3754 347.077 36.2134 345.696C34.0514 344.254 31.3489 343.534 28.1059 343.534H19.8183V361.731ZM74.8442 355.785C74.8442 358.427 75.3547 360.499 76.3756 362.001C77.4566 363.502 79.1982 364.253 81.6004 364.253C84.0627 364.253 86.0445 363.502 87.5459 362.001C89.1073 360.439 89.8881 358.367 89.8881 355.785V330.562H101.599V372H89.8881V365.694C87.3057 370.499 83.1018 372.901 77.2764 372.901C72.412 372.901 68.7486 371.49 66.2863 368.667C63.8841 365.844 62.683 361.971 62.683 357.046V330.562H74.8442V355.785ZM131.558 341.282H112.19V330.562H151.376L129.126 361.28H148.764V372H108.677L131.558 341.282ZM179.59 341.282H160.222V330.562H199.409L177.158 361.28H196.796V372H156.709L179.59 341.282ZM201.803 330.562H214.414L224.594 355.425L234.773 330.562H247.385L224.594 376.324L201.803 330.562ZM271.108 372.901C266.544 372.901 262.58 372.03 259.217 370.288C255.854 368.487 253.242 365.964 251.38 362.721C249.578 359.478 248.678 355.665 248.678 351.281C248.678 344.675 250.689 339.42 254.713 335.516C258.737 331.613 264.202 329.661 271.108 329.661C277.955 329.661 283.27 331.523 287.053 335.246C290.836 338.91 292.728 344.074 292.728 350.74C292.728 351.341 292.698 351.911 292.638 352.452C292.578 352.992 292.548 353.443 292.548 353.803H260.569C260.929 357.046 262.01 359.569 263.812 361.37C265.673 363.112 268.106 363.983 271.108 363.983C276.213 363.983 279.936 361.971 282.279 357.947L292.548 361.19C288.224 368.997 281.077 372.901 271.108 372.901ZM270.928 337.949C265.283 337.949 261.92 340.861 260.839 346.687H280.117C279.876 344.044 278.915 341.942 277.234 340.381C275.612 338.759 273.511 337.949 270.928 337.949ZM301.438 301.735H313.149V372H301.438V301.735ZM321.87 351.281C321.87 346.957 322.861 343.173 324.843 339.93C326.885 336.687 329.617 334.165 333.04 332.363C336.524 330.562 340.457 329.661 344.841 329.661C349.225 329.661 353.159 330.562 356.642 332.363C360.125 334.165 362.858 336.687 364.84 339.93C366.882 343.173 367.902 346.957 367.902 351.281C367.902 355.545 366.882 359.328 364.84 362.631C362.858 365.874 360.125 368.397 356.642 370.198C353.159 372 349.225 372.901 344.841 372.901C340.457 372.901 336.524 372 333.04 370.198C329.617 368.397 326.885 365.874 324.843 362.631C322.861 359.328 321.87 355.545 321.87 351.281ZM333.851 351.281C333.851 354.764 334.902 357.587 337.004 359.749C339.166 361.911 341.778 362.992 344.841 362.992C347.904 362.992 350.486 361.911 352.588 359.749C354.75 357.587 355.831 354.764 355.831 351.281C355.831 347.738 354.75 344.915 352.588 342.813C350.486 340.651 347.904 339.57 344.841 339.57C341.778 339.57 339.166 340.651 337.004 342.813C334.902 344.915 333.851 347.738 333.851 351.281ZM385.574 351.281C385.574 354.884 386.715 357.797 388.997 360.019C391.34 362.181 394.162 363.262 397.465 363.262C400.168 363.262 402.69 362.661 405.032 361.46C407.434 360.259 409.206 358.668 410.347 356.686V368.667C407.344 371.49 402.81 372.901 396.745 372.901C392.3 372.901 388.307 372 384.763 370.198C381.28 368.397 378.518 365.874 376.476 362.631C374.494 359.328 373.503 355.545 373.503 351.281C373.503 346.957 374.494 343.173 376.476 339.93C378.518 336.687 381.28 334.165 384.763 332.363C388.307 330.562 392.3 329.661 396.745 329.661C399.747 329.661 402.39 330.051 404.672 330.832C407.014 331.613 408.906 332.604 410.347 333.805V345.876C409.206 343.894 407.404 342.303 404.942 341.102C402.48 339.9 399.988 339.3 397.465 339.3C395.243 339.3 393.231 339.84 391.43 340.921C389.628 341.942 388.187 343.354 387.106 345.155C386.085 346.957 385.574 348.999 385.574 351.281ZM420.011 314.527C420.011 312.605 420.672 311.014 421.993 309.753C423.374 308.491 425.056 307.861 427.038 307.861C429.02 307.861 430.671 308.491 431.992 309.753C433.374 311.014 434.064 312.605 434.064 314.527C434.064 316.389 433.374 317.98 431.992 319.301C430.671 320.563 429.02 321.193 427.038 321.193C425.056 321.193 423.374 320.563 421.993 319.301C420.672 317.98 420.011 316.389 420.011 314.527ZM421.272 330.562H432.623V372H421.272V330.562ZM439.693 330.562H446.81V316.149H458.16V330.562H465.367V340.471H458.16V372H446.81V340.471H439.693V330.562ZM511.124 330.562L484.099 391.818H472.028L482.478 367.856L465.182 330.562H478.244L488.603 356.235L498.873 330.562H511.124Z" fill="#040505"/>
<path d="M156.908 65.1534C157.572 65.2933 159.828 66.469 161.952 67.7565C175.543 75.9307 235.322 112.406 236.251 113.078C236.862 113.526 237.791 114.561 238.295 115.345C240.127 118.285 240.047 115.037 239.967 167.777L239.888 215.338L239.065 217.156C238.614 218.165 237.764 219.48 237.154 220.068C236.092 221.161 162.987 265.922 158.846 268.021C157.2 268.861 156.669 269 154.997 269C153.749 269 152.634 268.804 151.759 268.468C149.741 267.629 73.5836 221.161 72.5749 220.151C72.0971 219.647 71.3007 218.444 70.8494 217.437L70 215.617V166.91V118.2L70.9025 116.437C71.4069 115.485 72.2298 114.281 72.7607 113.777C73.2916 113.274 79.6358 109.271 86.8561 104.876C137.61 73.9432 150.06 66.3849 151.228 65.825C152.767 65.0973 155.236 64.7893 156.908 65.1534Z" fill="#F8B500"/>
<path d="M75.7633 0.0616466C76.0288 0.117905 76.9313 0.590489 77.7807 1.10802C83.2172 4.39373 107.129 19.0553 107.5 19.3253C107.745 19.5054 108.116 19.9217 108.318 20.2368C109.051 21.4183 109.019 20.113 108.987 41.3124L108.955 60.4298L108.626 61.1606C108.446 61.5664 108.106 62.0948 107.861 62.3314C107.437 62.7705 78.1948 80.7627 76.5384 81.6066C75.8801 81.944 75.6678 82 74.9988 82C74.4998 82 74.0538 81.9211 73.7034 81.7862C72.8965 81.4488 42.4334 62.7705 42.0299 62.3646C41.8388 62.1622 41.5203 61.6785 41.3398 61.2737L41 60.5419V40.9637V21.3844L41.361 20.6756C41.5628 20.293 41.8919 19.8092 42.1043 19.6066C42.3166 19.4041 44.8543 17.795 47.7424 16.0285C68.044 3.59481 73.0239 0.556658 73.4911 0.331625C74.1069 0.0391239 75.0944 -0.0847079 75.7633 0.0616466Z" fill="#F8B500"/>
<path d="M184.795 5.1743C167.652 11.5709 153.068 25.6436 153.068 35.6224C153.068 58.3944 190.68 73.2347 262.579 78.0961C288.677 79.8872 288.677 79.8872 284.839 85.2604C282.536 88.3308 279.21 94.4716 276.907 99.0771C273.581 106.753 273.581 109.056 277.163 121.593C285.351 150.25 309.146 162.532 340.362 154.856C366.716 147.948 369.531 140.783 360.319 100.868C354.179 74.2581 353.667 59.162 359.04 57.1151C365.948 54.3006 380.277 58.6503 392.814 67.3497C407.143 77.3285 429.403 105.218 429.403 113.406C429.403 122.617 408.934 137.969 396.652 137.969C390.512 137.969 387.697 143.854 391.791 147.948C396.396 152.553 404.328 151.274 418.913 144.11C443.732 131.572 448.593 113.662 433.241 90.6336C414.819 63 385.906 43.2983 363.646 43.2983C341.641 43.2983 337.547 58.3944 347.526 103.683C354.434 134.898 354.179 136.945 344.711 140.272C330.895 145.133 310.681 143.854 303.005 137.713C294.306 130.805 288.677 119.802 288.677 109.568C288.677 101.636 298.656 89.6101 314.519 78.8637C319.381 75.5375 319.892 74.0023 317.334 70.9319C315.031 68.1174 305.564 66.5821 279.21 65.5587C218.57 62.7441 171.49 51.7419 166.885 39.4604C164.582 33.8313 172.77 25.6436 187.61 18.7352C217.29 4.66257 260.276 15.1531 306.076 47.6481C321.684 58.6503 329.615 60.4414 329.615 52.5095C329.615 43.8101 277.419 11.8268 250.553 3.89497C231.107 -1.73408 201.171 -1.22235 184.795 5.1743Z" fill="black"/>
<path d="M214.987 127.99C188.377 140.783 161.511 166.114 151.789 187.095C144.624 202.703 141.298 221.125 143.857 231.104C145.392 237.501 146.159 237.757 164.07 237.757C193.495 237.757 226.757 224.963 255.414 202.447C272.557 189.142 291.235 170.464 291.235 167.138C291.235 165.347 288.421 160.741 285.095 156.647C281.768 152.809 277.163 145.645 274.86 141.039C272.046 135.666 268.975 132.852 266.161 133.363C259.252 134.643 259.764 141.807 267.952 155.112L275.884 167.394L264.881 177.116C235.713 203.215 202.706 219.59 175.584 221.893C155.882 223.172 155.882 223.172 161.767 203.726C169.187 178.652 194.774 153.833 232.13 135.41C243.644 129.781 247.738 126.199 247.227 123.129C245.947 115.709 237.248 117.244 214.987 127.99Z" fill="black"/>
</svg>
